<?xml version="1.0" encoding="UTF-8" standalone="no"?>
<!DOCTYPE svg PUBLIC "-//W3C//DTD SVG 1.1//EN" "http://www.w3.org/Graphics/SVG/1.1/DTD/svg11.dtd">
<svg xmlns="http://www.w3.org/2000/svg" version="1.1" viewBox="0.00 0.00 105.00 123.00">
<g stroke-width="2.00" fill="none" stroke-linecap="butt">
<path stroke="#e19c9c" vector-effect="non-scaling-stroke" d="
  M 55.51 3.69
  L 55.48 1.60
  Q 55.46 0.50 54.57 1.14
  Q 51.64 3.24 48.60 1.19
  Q 47.94 0.75 47.67 1.50
  Q 47.36 2.37 47.70 3.28
  A 0.47 0.47 0.0 0 1 47.11 3.89
  L 44.72 3.11
  Q 43.70 2.77 43.86 3.84
  L 47.48 27.22
  Q 47.62 28.06 48.24 27.84
  L 51.05 26.85
  Q 51.49 26.69 51.94 26.85
  L 54.86 27.87
  Q 55.38 28.05 55.47 27.51
  L 59.46 4.32
  Q 59.60 3.52 58.81 3.69
  L 56.19 4.24
  Q 55.52 4.38 55.51 3.69"
/>
<path stroke="#d1c6b2" vector-effect="non-scaling-stroke" d="
  M 50.80 32.55
  A 1.82 1.79 44.5 0 1 52.19 32.55
  L 67.46 38.91
  A 0.21 0.21 0.0 0 0 67.72 38.61
  C 60.29 25.39 43.76 25.16 35.93 38.16
  A 0.33 0.33 0.0 0 0 36.34 38.63
  L 50.80 32.55"
/>
<path stroke="#e6feae" vector-effect="non-scaling-stroke" d="
  M 34.71 69.50
  L 25.75 67.71"
/>
<path stroke="#84b0be" vector-effect="non-scaling-stroke" d="
  M 25.75 67.71
  L 17.90 58.40
  Q 17.45 57.87 18.05 57.52
  L 19.36 56.73
  Q 19.72 56.52 19.45 56.19
  L 13.06 48.56
  Q 12.76 48.20 12.39 48.49
  L 6.25 53.46"
/>
<path stroke="#83a4af" vector-effect="non-scaling-stroke" d="
  M 6.25 53.46
  L 0.61 58.05
  Q 0.18 58.41 0.53 58.84
  L 6.85 66.56
  Q 7.29 67.09 7.77 66.60
  L 8.77 65.61
  Q 9.16 65.21 9.51 65.65
  L 17.29 75.25"
/>
<path stroke="#c2dd82" vector-effect="non-scaling-stroke" d="
  M 17.29 75.25
  Q 17.83 82.46 18.24 89.67
  C 18.82 99.91 22.15 107.19 28.62 114.91
  Q 38.29 126.44 51.37 118.84
  Q 51.81 118.58 52.24 118.85
  C 68.59 129.19 80.07 110.78 84.05 97.97
  C 85.13 94.51 84.68 90.48 85.28 86.30
  Q 85.70 83.35 85.75 74.54"
/>
<path stroke="#83a4af" vector-effect="non-scaling-stroke" d="
  M 85.75 74.54
  Q 90.12 70.59 93.49 65.61
  Q 93.88 65.04 94.37 65.52
  L 95.64 66.72
  Q 95.98 67.05 96.28 66.69
  L 102.58 59.08
  Q 102.89 58.71 102.57 58.33
  Q 99.84 55.21 96.29 53.25"
/>
<path stroke="#84b0be" vector-effect="non-scaling-stroke" d="
  M 96.29 53.25
  L 90.89 48.61
  Q 90.43 48.21 90.04 48.68
  L 84.04 55.94
  Q 83.65 56.40 84.14 56.75
  L 85.18 57.50
  Q 85.76 57.92 85.30 58.47
  L 77.50 67.71"
/>
<path stroke="#e6feae" vector-effect="non-scaling-stroke" d="
  M 77.50 67.71
  L 68.29 69.75"
/>
<path stroke="#d1c6b2" vector-effect="non-scaling-stroke" d="
  M 68.29 69.75
  C 69.70 67.19 70.73 64.99 70.75 61.91
  Q 70.82 52.17 70.72 42.33
  Q 70.71 41.88 70.29 41.70
  L 52.07 34.02
  Q 51.60 33.82 51.12 34.02
  L 32.81 41.75
  Q 32.29 41.97 32.28 42.54
  Q 32.18 52.33 32.27 61.90
  C 32.29 64.81 33.80 66.81 34.71 69.50"
/>
<path stroke="#b8c561" vector-effect="non-scaling-stroke" d="
  M 68.29 69.75
  L 68.50 76.14
  Q 68.52 76.67 68.20 77.10
  L 56.70 93.00
  Q 56.37 93.45 56.15 92.94
  Q 55.90 92.37 55.25 92.21"
/>
<path stroke="#529376" vector-effect="non-scaling-stroke" d="
  M 55.25 92.21
  L 56.00 90.29"
/>
<path stroke="#b8c561" vector-effect="non-scaling-stroke" d="
  M 56.00 90.29
  Q 57.61 87.18 56.18 84.13
  Q 55.96 83.66 56.34 83.30
  C 57.92 81.78 58.00 74.97 57.96 72.75"
/>
<path stroke="#d1c6b2" vector-effect="non-scaling-stroke" d="
  M 57.96 72.75
  L 58.77 66.77
  Q 58.85 66.22 59.34 65.97
  L 64.33 63.44
  Q 64.87 63.17 64.94 62.56
  L 65.38 58.45
  Q 65.45 57.74 64.82 58.07
  L 56.70 62.28
  Q 56.24 62.51 56.31 63.02
  L 57.34 70.93
  Q 57.41 71.45 57.01 71.81
  L 56.00 72.71"
/>
<path stroke="#b8c561" vector-effect="non-scaling-stroke" d="
  M 56.00 72.71
  L 52.09 75.97
  Q 51.68 76.31 51.27 75.98
  L 47.75 73.21"
/>
<path stroke="#d1c6b2" vector-effect="non-scaling-stroke" d="
  M 47.75 73.21
  L 46.13 71.81
  Q 45.77 71.50 45.84 71.03
  L 46.98 63.06
  Q 47.05 62.51 46.56 62.26
  L 38.77 58.25
  Q 38.05 57.88 38.11 58.69
  L 38.41 62.68
  Q 38.45 63.22 38.93 63.46
  L 44.01 66.01
  Q 44.45 66.23 44.51 66.72
  L 45.29 73.00"
/>
<path stroke="#b8c561" vector-effect="non-scaling-stroke" d="
  M 45.29 73.00
  L 47.16 92.84
  Q 47.26 93.86 46.66 93.03
  L 34.98 76.99
  Q 34.63 76.52 34.64 75.93
  L 34.71 69.50"
/>
<path stroke="#66cb71" vector-effect="non-scaling-stroke" d="
  M 56.00 90.29
  L 53.48 88.18
  Q 52.96 87.74 52.51 88.26
  L 50.30 90.89
  Q 49.92 91.33 50.38 91.69
  L 53.03 93.79
  Q 53.49 94.16 53.89 93.72
  L 55.25 92.21"
/>
<path stroke="#a9dc30" vector-effect="non-scaling-stroke" d="
  M 82.04 71.75
  L 81.54 72.25"
/>
<path stroke="#e6feae" vector-effect="non-scaling-stroke" d="
  M 81.54 72.25
  C 80.69 71.13 75.63 72.92 74.21 73.17
  A 0.45 0.45 0.0 0 0 74.04 73.99
  L 77.85 76.51"
/>
<path stroke="#a9dc30" vector-effect="non-scaling-stroke" d="
  M 77.85 76.51
  Q 72.42 81.89 67.96 88.00"
/>
<path stroke="#66b062" vector-effect="non-scaling-stroke" d="
  M 67.96 88.00
  L 67.50 87.96"
/>
<path stroke="#66cb71" vector-effect="non-scaling-stroke" d="
  M 67.50 87.96
  L 66.52 86.96
  Q 66.03 86.47 65.59 87.01
  L 63.42 89.68
  Q 63.00 90.19 63.52 90.59
  L 64.71 91.50"
/>
<path stroke="#66b062" vector-effect="non-scaling-stroke" d="
  M 64.71 91.50
  Q 64.73 91.60 64.76 91.90"
/>
<path stroke="#a9dc30" vector-effect="non-scaling-stroke" d="
  M 64.76 91.90
  L 61.75 95.04"
/>
<path stroke="#66cb71" vector-effect="non-scaling-stroke" d="
  M 61.75 95.04
  Q 61.22 94.39 60.48 94.11
  Q 59.94 93.91 59.56 94.34
  L 57.55 96.66
  Q 57.16 97.10 57.52 97.57
  Q 57.99 98.17 58.71 98.50"
/>
<path stroke="#66b062" vector-effect="non-scaling-stroke" d="
  M 58.71 98.50
  Q 58.75 98.63 58.79 98.75"
/>
<path stroke="#a9dc30" vector-effect="non-scaling-stroke" d="
  M 58.79 98.75
  L 56.00 102.04"
/>
<path stroke="#66cb71" vector-effect="non-scaling-stroke" d="
  M 56.00 102.04
  Q 55.19 101.89 54.62 101.29
  Q 54.17 100.81 53.74 101.31
  L 51.45 103.95
  Q 50.94 104.53 51.62 104.91
  L 52.75 105.54"
/>
<path stroke="#66b062" vector-effect="non-scaling-stroke" d="
  M 52.75 105.54
  Q 52.77 105.65 52.79 105.75"
/>
<path stroke="#a9dc30" vector-effect="non-scaling-stroke" d="
  M 52.79 105.75
  L 46.17 113.89
  Q 45.83 114.31 45.39 113.98
  L 42.79 112.00"
/>
<path stroke="#66b062" vector-effect="non-scaling-stroke" d="
  M 42.79 112.00
  Q 41.76 110.04 39.57 108.67"
/>
<path stroke="#a9dc30" vector-effect="non-scaling-stroke" d="
  M 39.57 108.67
  Q 39.04 106.58 37.25 104.96"
/>
<path stroke="#66b062" vector-effect="non-scaling-stroke" d="
  M 37.25 104.96
  L 35.50 100.21"
/>
<path stroke="#a9dc30" vector-effect="non-scaling-stroke" d="
  M 35.50 100.21
  Q 35.11 96.27 36.21 92.50"
/>
<path stroke="#66b062" vector-effect="non-scaling-stroke" d="
  M 36.21 92.50
  L 38.18 88.41
  Q 38.34 88.09 38.15 87.78
  L 37.92 87.39
  Q 37.55 86.77 36.89 87.06
  Q 35.97 87.46 35.25 88.21"
/>
<path stroke="#a9dc30" vector-effect="non-scaling-stroke" d="
  M 35.25 88.21
  Q 30.88 81.92 25.50 76.46"
/>
<path stroke="#e6feae" vector-effect="non-scaling-stroke" d="
  M 25.50 76.46
  L 28.97 73.93
  A 0.49 0.49 0.0 0 0 28.72 73.04
  C 26.97 72.91 22.68 71.07 21.71 72.50"
/>
<path stroke="#a9dc30" vector-effect="non-scaling-stroke" d="
  M 21.71 72.50
  L 20.96 72.00"
/>
<path stroke="#e6feae" vector-effect="non-scaling-stroke" d="
  M 47.75 73.21
  L 45.29 73.00"
/>
<path stroke="#e6feae" vector-effect="non-scaling-stroke" d="
  M 57.96 72.75
  L 56.00 72.71"
/>
<path stroke="#439036" vector-effect="non-scaling-stroke" d="
  M 35.25 88.21
  C 32.29 89.10 35.43 91.61 36.21 92.50"
/>
<path stroke="#439036" vector-effect="non-scaling-stroke" d="
  M 35.50 100.21
  L 33.04 102.19
  Q 32.60 102.54 32.95 102.98
  L 34.96 105.47
  Q 35.31 105.91 35.84 105.75
  Q 36.63 105.51 37.25 104.96"
/>
<path stroke="#439036" vector-effect="non-scaling-stroke" d="
  M 39.57 108.67
  Q 38.56 111.10 40.81 112.65
  C 41.72 113.28 42.43 112.97 42.79 112.00"
/>
<path stroke="#439036" vector-effect="non-scaling-stroke" d="
  M 52.79 105.75
  C 54.38 108.92 56.35 105.66 57.40 104.04
  Q 57.69 103.60 57.35 103.20
  Q 57.14 102.96 56.75 102.96"
/>
<path stroke="#43aa45" vector-effect="non-scaling-stroke" d="
  M 56.75 102.96
  L 56.00 102.04"
/>
<path stroke="#439036" vector-effect="non-scaling-stroke" d="
  M 58.79 98.75
  Q 59.37 99.68 60.17 99.95
  Q 60.71 100.13 61.09 99.70
  L 63.31 97.23
  Q 63.72 96.76 63.35 96.26
  Q 62.72 95.44 61.75 95.21"
/>
<path stroke="#43aa45" vector-effect="non-scaling-stroke" d="
  M 61.75 95.21
  Q 61.75 95.13 61.75 95.04"
/>
<path stroke="#439036" vector-effect="non-scaling-stroke" d="
  M 64.76 91.90
  Q 68.08 93.52 69.30 89.43
  Q 69.42 89.04 69.08 88.80
  L 67.96 88.00"
/>
<path stroke="#6bae6d" vector-effect="non-scaling-stroke" d="
  M 25.75 67.71
  L 21.29 71.25"
/>
<path stroke="#08546e" vector-effect="non-scaling-stroke" d="
  M 21.29 71.25
  Q 14.28 61.92 6.25 53.46"
/>
<path stroke="#6aa25d" vector-effect="non-scaling-stroke" d="
  M 21.29 71.25
  L 20.96 72.00"
/>
<path stroke="#468231" vector-effect="non-scaling-stroke" d="
  M 20.96 72.00
  L 17.29 75.25"
/>
<path stroke="#468231" vector-effect="non-scaling-stroke" d="
  M 85.75 74.54
  L 82.04 71.75"
/>
<path stroke="#6aa25d" vector-effect="non-scaling-stroke" d="
  M 82.04 71.75
  L 81.71 71.00"
/>
<path stroke="#08546e" vector-effect="non-scaling-stroke" d="
  M 96.29 53.25
  Q 89.58 62.60 81.71 71.00"
/>
<path stroke="#6bae6d" vector-effect="non-scaling-stroke" d="
  M 81.71 71.00
  L 77.50 67.71"
/>
<path stroke="#c2dd82" vector-effect="non-scaling-stroke" d="
  M 25.50 76.46
  L 22.56 79.44
  Q 22.00 80.00 21.96 79.21
  L 21.71 72.50"
/>
<path stroke="#007f77" vector-effect="non-scaling-stroke" d="
  M 56.75 102.96
  Q 54.22 103.39 52.75 105.54"
/>
<path stroke="#007f77" vector-effect="non-scaling-stroke" d="
  M 67.50 87.96
  L 64.71 91.50"
/>
<path stroke="#007f77" vector-effect="non-scaling-stroke" d="
  M 61.75 95.21
  L 58.71 98.50"
/>
<path stroke="#c2dd82" vector-effect="non-scaling-stroke" d="
  M 81.54 72.25
  L 81.13 79.26
  Q 81.09 79.96 80.61 79.45
  L 77.85 76.51"
/>
<path stroke="#66cb71" vector-effect="non-scaling-stroke" d="
  M 50.1435 98.2603
  A 0.55 0.55 0.0 0 0 50.0676 97.4862
  L 47.3321 95.2392
  A 0.55 0.55 0.0 0 0 46.5580 95.3151
  L 44.3365 98.0197
  A 0.55 0.55 0.0 0 0 44.4124 98.7938
  L 47.1479 101.0408
  A 0.55 0.55 0.0 0 0 47.9220 100.9649
  L 50.1435 98.2603"
/>
<path stroke="#439036" vector-effect="non-scaling-stroke" d="
  M 30.6964 93.0558
  A 0.73 0.73 0.0 0 0 29.6697 92.9479
  L 27.1828 94.9617
  A 0.73 0.73 0.0 0 0 27.0749 95.9884
  L 29.0636 98.4442
  A 0.73 0.73 0.0 0 0 30.0903 98.5521
  L 32.5772 96.5383
  A 0.73 0.73 0.0 0 0 32.6851 95.5116
  L 30.6964 93.0558"
/>
<path stroke="#439036" vector-effect="non-scaling-stroke" d="
  M 76.3092 95.8867
  A 0.57 0.57 0.0 0 0 76.2320 95.0843
  L 73.5467 92.8708
  A 0.57 0.57 0.0 0 0 72.7443 92.9480
  L 70.5308 95.6333
  A 0.57 0.57 0.0 0 0 70.6080 96.4357
  L 73.2933 98.6492
  A 0.57 0.57 0.0 0 0 74.0957 98.5720
  L 76.3092 95.8867"
/>
<path stroke="#439036" vector-effect="non-scaling-stroke" d="
  M 70.4115 102.8922
  A 0.41 0.41 0.0 0 0 70.3579 102.3149
  L 67.4804 99.9259
  A 0.41 0.41 0.0 0 0 66.9030 99.9794
  L 64.4885 102.8878
  A 0.41 0.41 0.0 0 0 64.5421 103.4651
  L 67.4196 105.8541
  A 0.41 0.41 0.0 0 0 67.9970 105.8006
  L 70.4115 102.8922"
/>
<path stroke="#439036" vector-effect="non-scaling-stroke" d="
  M 64.3911 110.1304
  A 0.58 0.58 0.0 0 0 64.3153 109.3137
  L 61.6686 107.1163
  A 0.58 0.58 0.0 0 0 60.8518 107.1921
  L 58.6289 109.8696
  A 0.58 0.58 0.0 0 0 58.7047 110.6863
  L 61.3514 112.8837
  A 0.58 0.58 0.0 0 0 62.1682 112.8079
  L 64.3911 110.1304"
/>
</g>
<path fill="#c23838" d="
  M 56.19 4.24
  L 58.81 3.69
  Q 59.60 3.52 59.46 4.32
  L 55.47 27.51
  Q 55.38 28.05 54.86 27.87
  L 51.94 26.85
  Q 51.49 26.69 51.05 26.85
  L 48.24 27.84
  Q 47.62 28.06 47.48 27.22
  L 43.86 3.84
  Q 43.70 2.77 44.72 3.11
  L 47.11 3.89
  A 0.47 0.47 0.0 0 0 47.70 3.28
  Q 47.36 2.37 47.67 1.50
  Q 47.94 0.75 48.60 1.19
  Q 51.64 3.24 54.57 1.14
  Q 55.46 0.50 55.48 1.60
  L 55.51 3.69
  Q 55.52 4.38 56.19 4.24
  Z"
/>
<path fill="#a38d65" d="
  M 50.80 32.55
  L 36.34 38.63
  A 0.33 0.33 0.0 0 1 35.93 38.16
  C 43.76 25.16 60.29 25.39 67.72 38.61
  A 0.21 0.21 0.0 0 1 67.46 38.91
  L 52.19 32.55
  A 1.82 1.79 44.5 0 0 50.80 32.55
  Z"
/>
<path fill="#a38d65" d="
  M 68.29 69.75
  L 68.50 76.14
  Q 68.52 76.67 68.20 77.10
  L 56.70 93.00
  Q 56.37 93.45 56.15 92.94
  Q 55.90 92.37 55.25 92.21
  L 56.00 90.29
  Q 57.61 87.18 56.18 84.13
  Q 55.96 83.66 56.34 83.30
  C 57.92 81.78 58.00 74.97 57.96 72.75
  L 58.77 66.77
  Q 58.85 66.22 59.34 65.97
  L 64.33 63.44
  Q 64.87 63.17 64.94 62.56
  L 65.38 58.45
  Q 65.45 57.74 64.82 58.07
  L 56.70 62.28
  Q 56.24 62.51 56.31 63.02
  L 57.34 70.93
  Q 57.41 71.45 57.01 71.81
  L 56.00 72.71
  L 52.09 75.97
  Q 51.68 76.31 51.27 75.98
  L 47.75 73.21
  L 46.13 71.81
  Q 45.77 71.50 45.84 71.03
  L 46.98 63.06
  Q 47.05 62.51 46.56 62.26
  L 38.77 58.25
  Q 38.05 57.88 38.11 58.69
  L 38.41 62.68
  Q 38.45 63.22 38.93 63.46
  L 44.01 66.01
  Q 44.45 66.23 44.51 66.72
  L 45.29 73.00
  L 47.16 92.84
  Q 47.26 93.86 46.66 93.03
  L 34.98 76.99
  Q 34.63 76.52 34.64 75.93
  L 34.71 69.50
  C 33.80 66.81 32.29 64.81 32.27 61.90
  Q 32.18 52.33 32.28 42.54
  Q 32.29 41.97 32.81 41.75
  L 51.12 34.02
  Q 51.60 33.82 52.07 34.02
  L 70.29 41.70
  Q 70.71 41.88 70.72 42.33
  Q 70.82 52.17 70.75 61.91
  C 70.73 64.99 69.70 67.19 68.29 69.75
  Z"
/>
<path fill="#09607d" d="
  M 25.75 67.71
  L 21.29 71.25
  Q 14.28 61.92 6.25 53.46
  L 12.39 48.49
  Q 12.76 48.20 13.06 48.56
  L 19.45 56.19
  Q 19.72 56.52 19.36 56.73
  L 18.05 57.52
  Q 17.45 57.87 17.90 58.40
  L 25.75 67.71
  Z"
/>
<path fill="#09607d" d="
  M 96.29 53.25
  Q 89.58 62.60 81.71 71.00
  L 77.50 67.71
  L 85.30 58.47
  Q 85.76 57.92 85.18 57.50
  L 84.14 56.75
  Q 83.65 56.40 84.04 55.94
  L 90.04 48.68
  Q 90.43 48.21 90.89 48.61
  L 96.29 53.25
  Z"
/>
<path fill="#07485e" d="
  M 96.29 53.25
  Q 99.84 55.21 102.57 58.33
  Q 102.89 58.71 102.58 59.08
  L 96.28 66.69
  Q 95.98 67.05 95.64 66.72
  L 94.37 65.52
  Q 93.88 65.04 93.49 65.61
  Q 90.12 70.59 85.75 74.54
  L 82.04 71.75
  L 81.71 71.00
  Q 89.58 62.60 96.29 53.25
  Z"
/>
<path fill="#07485e" d="
  M 6.25 53.46
  Q 14.28 61.92 21.29 71.25
  L 20.96 72.00
  L 17.29 75.25
  L 9.51 65.65
  Q 9.16 65.21 8.77 65.61
  L 7.77 66.60
  Q 7.29 67.09 6.85 66.56
  L 0.53 58.84
  Q 0.18 58.41 0.61 58.05
  L 6.25 53.46
  Z"
/>
<path fill="#ffffff" d="
  M 57.96 72.75
  L 56.00 72.71
  L 57.01 71.81
  Q 57.41 71.45 57.34 70.93
  L 56.31 63.02
  Q 56.24 62.51 56.70 62.28
  L 64.82 58.07
  Q 65.45 57.74 65.38 58.45
  L 64.94 62.56
  Q 64.87 63.17 64.33 63.44
  L 59.34 65.97
  Q 58.85 66.22 58.77 66.77
  L 57.96 72.75
  Z"
/>
<path fill="#ffffff" d="
  M 47.75 73.21
  L 45.29 73.00
  L 44.51 66.72
  Q 44.45 66.23 44.01 66.01
  L 38.93 63.46
  Q 38.45 63.22 38.41 62.68
  L 38.11 58.69
  Q 38.05 57.88 38.77 58.25
  L 46.56 62.26
  Q 47.05 62.51 46.98 63.06
  L 45.84 71.03
  Q 45.77 71.50 46.13 71.81
  L 47.75 73.21
  Z"
/>
<path fill="#ccfc5c" d="
  M 25.75 67.71
  L 34.71 69.50
  L 34.64 75.93
  Q 34.63 76.52 34.98 76.99
  L 46.66 93.03
  Q 47.26 93.86 47.16 92.84
  L 45.29 73.00
  L 47.75 73.21
  L 51.27 75.98
  Q 51.68 76.31 52.09 75.97
  L 56.00 72.71
  L 57.96 72.75
  C 58.00 74.97 57.92 81.78 56.34 83.30
  Q 55.96 83.66 56.18 84.13
  Q 57.61 87.18 56.00 90.29
  L 53.48 88.18
  Q 52.96 87.74 52.51 88.26
  L 50.30 90.89
  Q 49.92 91.33 50.38 91.69
  L 53.03 93.79
  Q 53.49 94.16 53.89 93.72
  L 55.25 92.21
  Q 55.90 92.37 56.15 92.94
  Q 56.37 93.45 56.70 93.00
  L 68.20 77.10
  Q 68.52 76.67 68.50 76.14
  L 68.29 69.75
  L 77.50 67.71
  L 81.71 71.00
  L 82.04 71.75
  L 81.54 72.25
  C 80.69 71.13 75.63 72.92 74.21 73.17
  A 0.45 0.45 0.0 0 0 74.04 73.99
  L 77.85 76.51
  Q 72.42 81.89 67.96 88.00
  L 67.50 87.96
  L 66.52 86.96
  Q 66.03 86.47 65.59 87.01
  L 63.42 89.68
  Q 63.00 90.19 63.52 90.59
  L 64.71 91.50
  Q 64.73 91.60 64.76 91.90
  L 61.75 95.04
  Q 61.22 94.39 60.48 94.11
  Q 59.94 93.91 59.56 94.34
  L 57.55 96.66
  Q 57.16 97.10 57.52 97.57
  Q 57.99 98.17 58.71 98.50
  Q 58.75 98.63 58.79 98.75
  L 56.00 102.04
  Q 55.19 101.89 54.62 101.29
  Q 54.17 100.81 53.74 101.31
  L 51.45 103.95
  Q 50.94 104.53 51.62 104.91
  L 52.75 105.54
  Q 52.77 105.65 52.79 105.75
  L 46.17 113.89
  Q 45.83 114.31 45.39 113.98
  L 42.79 112.00
  Q 41.76 110.04 39.57 108.67
  Q 39.04 106.58 37.25 104.96
  L 35.50 100.21
  Q 35.11 96.27 36.21 92.50
  L 38.18 88.41
  Q 38.34 88.09 38.15 87.78
  L 37.92 87.39
  Q 37.55 86.77 36.89 87.06
  Q 35.97 87.46 35.25 88.21
  Q 30.88 81.92 25.50 76.46
  L 28.97 73.93
  A 0.49 0.49 0.0 0 0 28.72 73.04
  C 26.97 72.91 22.68 71.07 21.71 72.50
  L 20.96 72.00
  L 21.29 71.25
  L 25.75 67.71
  Z
  M 50.1435 98.2603
  A 0.55 0.55 0.0 0 0 50.0676 97.4862
  L 47.3321 95.2392
  A 0.55 0.55 0.0 0 0 46.5580 95.3151
  L 44.3365 98.0197
  A 0.55 0.55 0.0 0 0 44.4124 98.7938
  L 47.1479 101.0408
  A 0.55 0.55 0.0 0 0 47.9220 100.9649
  L 50.1435 98.2603
  Z"
/>
<path fill="#ffffff" d="
  M 25.50 76.46
  L 22.56 79.44
  Q 22.00 80.00 21.96 79.21
  L 21.71 72.50
  C 22.68 71.07 26.97 72.91 28.72 73.04
  A 0.49 0.49 0.0 0 1 28.97 73.93
  L 25.50 76.46
  Z"
/>
<path fill="#ffffff" d="
  M 81.54 72.25
  L 81.13 79.26
  Q 81.09 79.96 80.61 79.45
  L 77.85 76.51
  L 74.04 73.99
  A 0.45 0.45 0.0 0 1 74.21 73.17
  C 75.63 72.92 80.69 71.13 81.54 72.25
  Z"
/>
<path fill="#85bb04" d="
  M 82.04 71.75
  L 85.75 74.54
  Q 85.70 83.35 85.28 86.30
  C 84.68 90.48 85.13 94.51 84.05 97.97
  C 80.07 110.78 68.59 129.19 52.24 118.85
  Q 51.81 118.58 51.37 118.84
  Q 38.29 126.44 28.62 114.91
  C 22.15 107.19 18.82 99.91 18.24 89.67
  Q 17.83 82.46 17.29 75.25
  L 20.96 72.00
  L 21.71 72.50
  L 21.96 79.21
  Q 22.00 80.00 22.56 79.44
  L 25.50 76.46
  Q 30.88 81.92 35.25 88.21
  C 32.29 89.10 35.43 91.61 36.21 92.50
  Q 35.11 96.27 35.50 100.21
  L 33.04 102.19
  Q 32.60 102.54 32.95 102.98
  L 34.96 105.47
  Q 35.31 105.91 35.84 105.75
  Q 36.63 105.51 37.25 104.96
  Q 39.04 106.58 39.57 108.67
  Q 38.56 111.10 40.81 112.65
  C 41.72 113.28 42.43 112.97 42.79 112.00
  L 45.39 113.98
  Q 45.83 114.31 46.17 113.89
  L 52.79 105.75
  C 54.38 108.92 56.35 105.66 57.40 104.04
  Q 57.69 103.60 57.35 103.20
  Q 57.14 102.96 56.75 102.96
  L 56.00 102.04
  L 58.79 98.75
  Q 59.37 99.68 60.17 99.95
  Q 60.71 100.13 61.09 99.70
  L 63.31 97.23
  Q 63.72 96.76 63.35 96.26
  Q 62.72 95.44 61.75 95.21
  Q 61.75 95.13 61.75 95.04
  L 64.76 91.90
  Q 68.08 93.52 69.30 89.43
  Q 69.42 89.04 69.08 88.80
  L 67.96 88.00
  Q 72.42 81.89 77.85 76.51
  L 80.61 79.45
  Q 81.09 79.96 81.13 79.26
  L 81.54 72.25
  L 82.04 71.75
  Z
  M 30.6964 93.0558
  A 0.73 0.73 0.0 0 0 29.6697 92.9479
  L 27.1828 94.9617
  A 0.73 0.73 0.0 0 0 27.0749 95.9884
  L 29.0636 98.4442
  A 0.73 0.73 0.0 0 0 30.0903 98.5521
  L 32.5772 96.5383
  A 0.73 0.73 0.0 0 0 32.6851 95.5116
  L 30.6964 93.0558
  Z
  M 76.3092 95.8867
  A 0.57 0.57 0.0 0 0 76.2320 95.0843
  L 73.5467 92.8708
  A 0.57 0.57 0.0 0 0 72.7443 92.9480
  L 70.5308 95.6333
  A 0.57 0.57 0.0 0 0 70.6080 96.4357
  L 73.2933 98.6492
  A 0.57 0.57 0.0 0 0 74.0957 98.5720
  L 76.3092 95.8867
  Z
  M 70.4115 102.8922
  A 0.41 0.41 0.0 0 0 70.3579 102.3149
  L 67.4804 99.9259
  A 0.41 0.41 0.0 0 0 66.9030 99.9794
  L 64.4885 102.8878
  A 0.41 0.41 0.0 0 0 64.5421 103.4651
  L 67.4196 105.8541
  A 0.41 0.41 0.0 0 0 67.9970 105.8006
  L 70.4115 102.8922
  Z
  M 64.3911 110.1304
  A 0.58 0.58 0.0 0 0 64.3153 109.3137
  L 61.6686 107.1163
  A 0.58 0.58 0.0 0 0 60.8518 107.1921
  L 58.6289 109.8696
  A 0.58 0.58 0.0 0 0 58.7047 110.6863
  L 61.3514 112.8837
  A 0.58 0.58 0.0 0 0 62.1682 112.8079
  L 64.3911 110.1304
  Z"
/>
<path fill="#009986" d="
  M 67.50 87.96
  L 64.71 91.50
  L 63.52 90.59
  Q 63.00 90.19 63.42 89.68
  L 65.59 87.01
  Q 66.03 86.47 66.52 86.96
  L 67.50 87.96
  Z"
/>
<path fill="#006468" d="
  M 36.21 92.50
  C 35.43 91.61 32.29 89.10 35.25 88.21
  Q 35.97 87.46 36.89 87.06
  Q 37.55 86.77 37.92 87.39
  L 38.15 87.78
  Q 38.34 88.09 38.18 88.41
  L 36.21 92.50
  Z"
/>
<path fill="#009986" d="
  M 56.00 90.29
  L 55.25 92.21
  L 53.89 93.72
  Q 53.49 94.16 53.03 93.79
  L 50.38 91.69
  Q 49.92 91.33 50.30 90.89
  L 52.51 88.26
  Q 52.96 87.74 53.48 88.18
  L 56.00 90.29
  Z"
/>
<path fill="#006468" d="
  M 67.50 87.96
  L 67.96 88.00
  L 69.08 88.80
  Q 69.42 89.04 69.30 89.43
  Q 68.08 93.52 64.76 91.90
  Q 64.73 91.60 64.71 91.50
  L 67.50 87.96
  Z"
/>
<rect fill="#006468" x="-2.33" y="-2.31" transform="translate(29.88,95.75) rotate(-39.0)" width="4.66" height="4.62" rx="0.73"/>
<rect fill="#006468" x="-2.31" y="-2.31" transform="translate(73.42,95.76) rotate(39.5)" width="4.62" height="4.62" rx="0.57"/>
<path fill="#009986" d="
  M 61.75 95.04
  Q 61.75 95.13 61.75 95.21
  L 58.71 98.50
  Q 57.99 98.17 57.52 97.57
  Q 57.16 97.10 57.55 96.66
  L 59.56 94.34
  Q 59.94 93.91 60.48 94.11
  Q 61.22 94.39 61.75 95.04
  Z"
/>
<rect fill="#009986" x="-2.32" y="-2.30" transform="translate(47.24,98.14) rotate(39.4)" width="4.64" height="4.60" rx="0.55"/>
<path fill="#006468" d="
  M 61.75 95.21
  Q 62.72 95.44 63.35 96.26
  Q 63.72 96.76 63.31 97.23
  L 61.09 99.70
  Q 60.71 100.13 60.17 99.95
  Q 59.37 99.68 58.79 98.75
  Q 58.75 98.63 58.71 98.50
  L 61.75 95.21
  Z"
/>
<rect fill="#006468" x="-2.28" y="-2.30" transform="translate(67.45,102.89) rotate(39.7)" width="4.56" height="4.60" rx="0.41"/>
<path fill="#006468" d="
  M 35.50 100.21
  L 37.25 104.96
  Q 36.63 105.51 35.84 105.75
  Q 35.31 105.91 34.96 105.47
  L 32.95 102.98
  Q 32.60 102.54 33.04 102.19
  L 35.50 100.21
  Z"
/>
<path fill="#009986" d="
  M 56.00 102.04
  L 56.75 102.96
  Q 54.22 103.39 52.75 105.54
  L 51.62 104.91
  Q 50.94 104.53 51.45 103.95
  L 53.74 101.31
  Q 54.17 100.81 54.62 101.29
  Q 55.19 101.89 56.00 102.04
  Z"
/>
<path fill="#006468" d="
  M 56.75 102.96
  Q 57.14 102.96 57.35 103.20
  Q 57.69 103.60 57.40 104.04
  C 56.35 105.66 54.38 108.92 52.79 105.75
  Q 52.77 105.65 52.75 105.54
  Q 54.22 103.39 56.75 102.96
  Z"
/>
<rect fill="#006468" x="-2.30" y="-2.32" transform="translate(61.51,110.00) rotate(39.7)" width="4.60" height="4.64" rx="0.58"/>
<path fill="#006468" d="
  M 39.57 108.67
  Q 41.76 110.04 42.79 112.00
  C 42.43 112.97 41.72 113.28 40.81 112.65
  Q 38.56 111.10 39.57 108.67
  Z"
/>
</svg>
