<?xml version="1.0" encoding="UTF-8" standalone="no"?>
<!DOCTYPE svg PUBLIC "-//W3C//DTD SVG 1.1//EN" "http://www.w3.org/Graphics/SVG/1.1/DTD/svg11.dtd">
<svg xmlns="http://www.w3.org/2000/svg" version="1.1" viewBox="0.00 0.00 200.00 200.00">
<g stroke-width="2.00" fill="none" stroke-linecap="butt">
<path stroke="#8e9093" vector-effect="non-scaling-stroke" d="
  M 200.00 136.31
  C 198.62 131.72 190.82 133.09 190.99 131.10
  Q 191.05 130.51 191.63 130.51
  L 198.38 130.50
  Q 199.00 130.49 199.00 129.87
  L 199.00 126.02
  Q 199.00 125.38 198.35 125.34
  C 194.96 125.13 186.82 124.33 185.25 127.99
  C 184.32 130.15 184.01 135.84 187.53 136.92
  Q 190.09 137.70 193.26 138.12
  A 0.76 0.75 -71.1 0 1 193.81 139.25
  C 193.33 140.07 186.68 139.74 185.36 139.79
  Q 184.77 139.81 184.76 140.40
  L 184.74 144.03
  Q 184.74 144.70 185.40 144.78
  C 189.41 145.28 198.48 146.27 200.00 141.06"
/>
<path stroke="#8e9093" vector-effect="non-scaling-stroke" d="
  M 0.00 144.44
  Q 2.71 145.64 5.64 144.70
  Q 6.23 144.51 6.24 143.89
  L 6.26 140.02
  Q 6.26 139.37 6.90 139.44
  Q 10.68 139.83 13.98 138.20
  Q 14.46 137.96 14.69 137.48
  C 16.04 134.51 16.82 127.05 12.79 125.91
  Q 7.31 124.36 0.00 125.69"
/>
<path stroke="#d58f8f" vector-effect="non-scaling-stroke" d="
  M 105.25 28.71
  L 105.25 26.78
  Q 105.25 26.01 104.57 26.38
  Q 101.55 28.04 98.55 26.31
  Q 97.75 25.85 97.75 26.77
  L 97.75 28.32
  Q 97.75 28.90 97.17 28.81
  L 94.66 28.39
  A 0.54 0.54 0.0 0 0 94.03 29.01
  L 97.62 52.47
  A 0.50 0.50 0.0 0 0 98.38 52.81
  Q 101.45 50.84 104.45 52.84
  A 0.61 0.60 -68.3 0 0 105.38 52.44
  L 109.39 29.28
  Q 109.51 28.56 108.79 28.71
  L 105.97 29.29
  Q 105.25 29.44 105.25 28.71"
/>
<path stroke="#c6b9a5" vector-effect="non-scaling-stroke" d="
  M 102.08 57.28
  L 116.83 63.40
  A 0.34 0.33 -4.2 0 0 117.25 62.92
  C 109.71 50.54 93.30 50.75 86.01 63.26
  A 0.18 0.18 0.0 0 0 86.24 63.52
  L 100.89 57.28
  Q 101.48 57.03 102.08 57.28"
/>
<path stroke="#daf1a1" vector-effect="non-scaling-stroke" d="
  M 84.71 94.75
  L 75.54 92.75"
/>
<path stroke="#79a3b1" vector-effect="non-scaling-stroke" d="
  M 75.54 92.75
  L 67.88 83.47
  Q 67.49 83.00 67.97 82.62
  L 69.00 81.80
  Q 69.47 81.43 69.09 80.97
  L 63.17 73.82
  Q 62.80 73.38 62.35 73.74
  L 56.46 78.53"
/>
<path stroke="#7897a2" vector-effect="non-scaling-stroke" d="
  M 56.46 78.53
  L 50.80 83.13
  Q 50.32 83.53 50.72 84.01
  L 56.83 91.35
  Q 57.18 91.76 57.61 91.44
  L 58.88 90.47
  Q 59.33 90.13 59.69 90.57
  L 67.29 99.75"
/>
<path stroke="#b7d075" vector-effect="non-scaling-stroke" d="
  M 67.29 99.75
  C 68.09 108.07 67.44 117.26 70.00 125.21"
/>
<path stroke="#8e9093" vector-effect="non-scaling-stroke" d="
  M 70.00 125.21
  L 59.01 125.24
  A 0.51 0.51 0.0 0 0 58.50 125.75
  L 58.50 144.45
  A 0.58 0.57 0.0 0 0 59.08 145.02
  L 72.22 144.95
  Q 72.88 144.95 72.91 144.29
  L 73.03 140.66
  Q 73.07 139.75 72.16 139.75
  L 65.13 139.75
  Q 64.50 139.75 64.50 139.13
  L 64.50 138.13
  Q 64.50 137.51 65.12 137.51
  L 69.98 137.49
  Q 70.76 137.49 70.76 136.71
  L 70.74 133.18
  Q 70.73 132.51 70.06 132.51
  L 65.00 132.50
  Q 64.50 132.49 64.50 132.00
  L 64.50 131.01
  Q 64.50 130.52 65.00 130.52
  L 72.25 130.54"
/>
<path stroke="#b7d075" vector-effect="non-scaling-stroke" d="
  M 72.25 130.54
  L 75.96 136.25"
/>
<path stroke="#8e9093" vector-effect="non-scaling-stroke" d="
  M 75.96 136.25
  L 76.17 143.87
  A 1.18 1.18 0.0 0 0 77.32 145.02
  L 85.75 145.29"
/>
<path stroke="#b7d075" vector-effect="non-scaling-stroke" d="
  M 85.75 145.29
  Q 91.72 148.39 97.73 145.34"
/>
<path stroke="#8e9093" vector-effect="non-scaling-stroke" d="
  M 97.73 145.34
  Q 101.75 144.55 105.76 145.33"
/>
<path stroke="#b7d075" vector-effect="non-scaling-stroke" d="
  M 105.76 145.33
  Q 112.19 148.46 118.50 145.04"
/>
<path stroke="#8e9093" vector-effect="non-scaling-stroke" d="
  M 118.50 145.04
  L 124.49 144.99
  Q 125.03 144.98 125.23 144.48
  Q 126.14 142.09 125.00 139.71"
/>
<path stroke="#b7d075" vector-effect="non-scaling-stroke" d="
  M 125.00 139.71
  L 131.15 130.49"
/>
<path stroke="#8e9093" vector-effect="non-scaling-stroke" d="
  M 131.15 130.49
  Q 132.20 134.79 131.63 139.37
  Q 131.58 139.75 131.19 139.75
  L 128.75 139.75
  Q 128.07 139.75 128.05 140.43
  L 127.98 143.65
  A 1.30 1.30 0.0 0 0 129.27 144.98
  Q 134.85 145.05 140.18 144.95
  C 142.28 144.92 142.01 141.46 141.53 140.26
  Q 141.33 139.75 140.78 139.75
  L 138.50 139.75
  Q 138.00 139.75 138.00 139.25
  L 138.00 131.25
  Q 138.00 130.50 138.75 130.50
  L 140.77 130.50
  Q 141.34 130.50 141.50 129.96
  Q 142.14 127.84 141.38 125.79
  Q 141.19 125.25 140.61 125.25
  L 133.25 125.21"
/>
<path stroke="#b7d075" vector-effect="non-scaling-stroke" d="
  M 133.25 125.21
  C 135.00 119.89 134.90 113.05 135.28 109.15
  Q 135.74 104.47 135.71 99.75"
/>
<path stroke="#7897a2" vector-effect="non-scaling-stroke" d="
  M 135.71 99.75
  L 143.57 90.50
  Q 143.97 90.04 144.44 90.43
  L 145.68 91.48
  Q 146.03 91.77 146.32 91.42
  L 152.53 84.01
  Q 152.91 83.56 152.46 83.19
  L 146.86 78.57"
/>
<path stroke="#79a3b1" vector-effect="non-scaling-stroke" d="
  M 146.86 78.57
  L 141.00 73.71
  Q 140.54 73.34 140.16 73.79
  L 134.16 80.96
  Q 133.78 81.42 134.25 81.79
  L 135.28 82.62
  Q 135.75 82.99 135.37 83.46
  L 127.71 92.75"
/>
<path stroke="#daf1a1" vector-effect="non-scaling-stroke" d="
  M 127.71 92.75
  L 118.29 95.00"
/>
<path stroke="#c6b9a5" vector-effect="non-scaling-stroke" d="
  M 118.29 95.00
  C 119.17 92.18 120.72 90.09 120.74 87.08
  Q 120.78 77.33 120.74 67.50
  Q 120.73 66.97 120.25 66.77
  L 102.13 59.26
  Q 101.63 59.05 101.13 59.26
  L 82.99 66.79
  Q 82.54 66.98 82.53 67.46
  Q 82.43 77.18 82.50 86.89
  C 82.52 89.90 84.00 91.85 84.71 94.75"
/>
<path stroke="#b8c561" vector-effect="non-scaling-stroke" d="
  M 118.29 95.00
  L 118.50 101.12
  Q 118.51 101.64 118.21 102.06
  L 106.81 117.90
  Q 106.44 118.40 106.29 117.80
  Q 106.13 117.21 105.71 116.75"
/>
<path stroke="#529376" vector-effect="non-scaling-stroke" d="
  M 105.71 116.75
  L 106.00 115.29"
/>
<path stroke="#b8c561" vector-effect="non-scaling-stroke" d="
  M 106.00 115.29
  L 106.82 110.80
  Q 106.90 110.31 106.55 109.97
  Q 105.47 108.89 106.68 107.94
  Q 107.11 107.60 107.16 107.06
  L 108.00 97.79"
/>
<path stroke="#c6b9a5" vector-effect="non-scaling-stroke" d="
  M 108.00 97.79
  L 108.78 91.77
  Q 108.85 91.22 109.34 90.97
  L 114.32 88.44
  Q 114.81 88.20 114.87 87.65
  L 115.33 83.55
  Q 115.41 82.77 114.71 83.13
  L 106.69 87.28
  Q 106.23 87.52 106.29 88.03
  L 107.29 95.75
  Q 107.35 96.22 107.03 96.57
  L 106.00 97.71"
/>
<path stroke="#b8c561" vector-effect="non-scaling-stroke" d="
  M 106.00 97.71
  L 102.05 101.01
  Q 101.61 101.37 101.16 101.03
  L 96.88 97.77"
/>
<path stroke="#c6b9a5" vector-effect="non-scaling-stroke" d="
  M 96.88 97.77
  Q 95.71 93.10 97.05 88.26
  Q 97.23 87.63 96.65 87.33
  L 88.56 83.12
  Q 87.86 82.75 87.95 83.54
  L 88.44 87.72
  Q 88.50 88.25 88.97 88.48
  L 93.96 90.98
  Q 94.43 91.22 94.49 91.73
  L 95.29 98.00"
/>
<path stroke="#b8c561" vector-effect="non-scaling-stroke" d="
  M 95.29 98.00
  L 97.13 117.69
  Q 97.23 118.82 96.57 117.90
  L 84.99 101.95
  Q 84.64 101.48 84.65 100.89
  L 84.71 94.75"
/>
<path stroke="#66cb71" vector-effect="non-scaling-stroke" d="
  M 106.00 115.29
  L 103.45 113.18
  Q 102.94 112.76 102.51 113.26
  L 100.30 115.89
  Q 99.92 116.33 100.38 116.69
  L 103.06 118.82
  Q 103.49 119.16 103.86 118.75
  L 105.71 116.75"
/>
<path stroke="#daf1a1" vector-effect="non-scaling-stroke" d="
  M 131.50 96.21
  L 123.77 98.28
  Q 123.08 98.46 123.67 98.86
  L 127.50 101.46"
/>
<path stroke="#a9dc30" vector-effect="non-scaling-stroke" d="
  M 127.50 101.46
  L 118.00 113.04"
/>
<path stroke="#66b063" vector-effect="non-scaling-stroke" d="
  M 118.00 113.04
  L 117.50 112.96"
/>
<path stroke="#66cb71" vector-effect="non-scaling-stroke" d="
  M 117.50 112.96
  Q 117.12 112.30 116.45 111.88
  Q 115.93 111.56 115.55 112.04
  L 113.44 114.72
  Q 113.05 115.22 113.55 115.61
  L 114.71 116.50"
/>
<path stroke="#66b063" vector-effect="non-scaling-stroke" d="
  M 114.71 116.50
  Q 114.73 116.60 114.77 116.90"
/>
<path stroke="#a9dc30" vector-effect="non-scaling-stroke" d="
  M 114.77 116.90
  L 111.96 120.00"
/>
<path stroke="#66cb71" vector-effect="non-scaling-stroke" d="
  M 111.96 120.00
  L 110.46 119.14
  Q 109.93 118.84 109.54 119.30
  L 107.47 121.75
  Q 107.05 122.26 107.56 122.66
  L 108.96 123.75"
/>
<path stroke="#66b063" vector-effect="non-scaling-stroke" d="
  M 108.96 123.75
  Q 109.00 123.88 109.04 124.00"
/>
<path stroke="#a9dc30" vector-effect="non-scaling-stroke" d="
  M 109.04 124.00
  L 107.50 125.21"
/>
<path stroke="#809b4e" vector-effect="non-scaling-stroke" d="
  M 107.50 125.21
  L 98.75 125.21"
/>
<path stroke="#66cb71" vector-effect="non-scaling-stroke" d="
  M 98.75 125.21
  L 100.07 123.25
  Q 100.42 122.73 99.93 122.34
  L 97.60 120.44
  Q 97.25 120.16 96.85 120.37
  Q 93.32 122.25 95.38 125.14"
/>
<path stroke="#809b4e" vector-effect="non-scaling-stroke" d="
  M 95.38 125.14
  Q 93.73 127.25 94.78 129.99
  Q 94.97 130.50 95.52 130.50
  L 97.56 130.50
  Q 98.19 130.50 98.16 131.12
  L 97.96 137.25"
/>
<path stroke="#a9dc30" vector-effect="non-scaling-stroke" d="
  M 97.96 137.25
  L 96.06 138.74
  Q 95.64 139.08 95.20 138.76
  L 92.75 136.96"
/>
<path stroke="#809b4e" vector-effect="non-scaling-stroke" d="
  M 92.75 136.96
  Q 92.19 134.85 90.25 133.96"
/>
<path stroke="#a9dc30" vector-effect="non-scaling-stroke" d="
  M 90.25 133.96
  L 87.25 129.96"
/>
<path stroke="#66b063" vector-effect="non-scaling-stroke" d="
  M 87.25 129.96
  L 85.50 125.21"
/>
<path stroke="#a9dc30" vector-effect="non-scaling-stroke" d="
  M 85.50 125.21
  Q 85.14 121.14 86.21 117.25"
/>
<path stroke="#66b063" vector-effect="non-scaling-stroke" d="
  M 86.21 117.25
  L 88.30 113.02
  A 0.77 0.77 0.0 0 0 87.42 111.94
  Q 86.19 112.25 85.25 113.21"
/>
<path stroke="#a9dc30" vector-effect="non-scaling-stroke" d="
  M 85.25 113.21
  L 75.75 101.46"
/>
<path stroke="#daf1a1" vector-effect="non-scaling-stroke" d="
  M 75.75 101.46
  L 79.72 98.89
  A 0.39 0.39 0.0 0 0 79.62 98.18
  L 71.71 96.00"
/>
<path stroke="#daf1a1" vector-effect="non-scaling-stroke" d="
  M 96.88 97.77
  L 95.29 98.00"
/>
<path stroke="#daf1a1" vector-effect="non-scaling-stroke" d="
  M 108.00 97.79
  L 106.00 97.71"
/>
<path stroke="#1a4f55" vector-effect="non-scaling-stroke" d="
  M 82.54 127.50
  Q 82.54 127.63 82.54 127.75"
/>
<path stroke="#5d7b22" vector-effect="non-scaling-stroke" d="
  M 82.54 127.75
  Q 81.95 133.44 82.35 139.19
  Q 82.39 139.75 82.95 139.75
  L 85.37 139.75
  Q 86.00 139.75 86.00 139.13
  L 86.00 135.08
  Q 86.00 134.61 86.47 134.53
  L 90.25 133.96"
/>
<path stroke="#5d7b22" vector-effect="non-scaling-stroke" d="
  M 92.75 136.96
  Q 91.45 140.13 92.11 143.29
  A 1.47 1.46 82.6 0 1 90.75 145.06
  L 85.75 145.29"
/>
<path stroke="#5d7b22" vector-effect="non-scaling-stroke" d="
  M 133.25 125.21
  L 128.77 125.25
  Q 128.12 125.26 128.10 125.91
  L 128.00 129.71
  Q 127.98 130.47 128.74 130.47
  L 131.15 130.49"
/>
<path stroke="#5d7b22" vector-effect="non-scaling-stroke" d="
  M 125.00 139.71
  L 118.08 139.60
  Q 117.50 139.60 117.50 139.02
  L 117.50 132.16
  A 1.65 1.65 0.0 0 1 119.15 130.51
  L 124.90 130.50
  Q 125.47 130.49 125.47 129.92
  L 125.47 126.03
  Q 125.47 125.36 124.81 125.34
  C 118.50 125.07 110.57 123.90 110.96 132.45"
/>
<path stroke="#439037" vector-effect="non-scaling-stroke" d="
  M 110.96 132.45
  Q 109.33 133.57 108.65 135.06
  Q 108.42 135.56 108.88 135.87
  L 111.03 137.30"
/>
<path stroke="#5d7b22" vector-effect="non-scaling-stroke" d="
  M 111.03 137.30
  Q 110.53 145.11 118.50 145.04"
/>
<path stroke="#5d7b22" vector-effect="non-scaling-stroke" d="
  M 105.76 145.33
  Q 109.69 144.05 107.85 140.15
  Q 107.66 139.75 107.22 139.75
  L 105.00 139.75
  Q 104.50 139.75 104.50 139.25
  L 104.50 133.18
  Q 104.50 132.66 104.78 132.22
  Q 105.72 130.73 107.40 130.42
  Q 107.93 130.33 108.10 129.82
  Q 108.91 127.32 107.50 125.21"
/>
<path stroke="#439037" vector-effect="non-scaling-stroke" d="
  M 109.04 124.00
  Q 109.37 124.70 110.00 125.05
  Q 110.50 125.34 110.88 124.91
  L 113.27 122.20
  Q 113.68 121.74 113.32 121.23
  Q 113.04 120.85 112.50 120.71"
/>
<path stroke="#43aa45" vector-effect="non-scaling-stroke" d="
  M 112.50 120.71
  L 111.96 120.00"
/>
<path stroke="#439037" vector-effect="non-scaling-stroke" d="
  M 114.77 116.90
  Q 117.95 118.60 119.27 114.44
  Q 119.40 114.01 119.03 113.75
  L 118.00 113.04"
/>
<path stroke="#468231" vector-effect="non-scaling-stroke" d="
  M 135.71 99.75
  L 131.79 96.75"
/>
<path stroke="#7897a2" vector-effect="non-scaling-stroke" d="
  M 131.79 96.75
  L 131.50 96.21"
/>
<path stroke="#6aa25d" vector-effect="non-scaling-stroke" d="
  M 131.50 96.21
  L 131.25 95.79"
/>
<path stroke="#b7d075" vector-effect="non-scaling-stroke" d="
  M 131.79 96.75
  L 131.19 104.47
  Q 131.15 105.01 130.77 104.63
  L 127.50 101.46"
/>
<path stroke="#1a6a63" vector-effect="non-scaling-stroke" d="
  M 98.75 125.21
  L 95.38 125.14"
/>
<path stroke="#439037" vector-effect="non-scaling-stroke" d="
  M 85.25 113.21
  C 82.55 114.25 84.96 116.54 86.21 117.25"
/>
<path stroke="#439037" vector-effect="non-scaling-stroke" d="
  M 85.50 125.21
  L 82.54 127.50"
/>
<path stroke="#5d7b22" vector-effect="non-scaling-stroke" d="
  M 82.54 127.50
  L 82.18 125.94
  Q 82.02 125.25 81.31 125.25
  L 76.81 125.25
  Q 76.21 125.25 76.19 125.85
  L 75.96 136.25"
/>
<path stroke="#5d7b22" vector-effect="non-scaling-stroke" d="
  M 72.25 130.54
  Q 73.62 128.42 72.79 125.96
  Q 72.63 125.49 72.15 125.35
  Q 71.12 125.07 70.00 125.21"
/>
<path stroke="#007f78" vector-effect="non-scaling-stroke" d="
  M 117.50 112.96
  L 114.71 116.50"
/>
<path stroke="#5d7b22" vector-effect="non-scaling-stroke" d="
  M 97.73 145.34
  Q 92.55 144.52 95.02 140.02
  Q 95.24 139.61 95.72 139.65
  L 97.34 139.77
  Q 97.98 139.82 98.14 139.20
  Q 98.39 138.21 97.96 137.25"
/>
<path stroke="#b7d075" vector-effect="non-scaling-stroke" d="
  M 75.75 101.46
  L 72.77 104.43
  Q 72.25 104.94 72.18 104.22
  L 71.46 96.50"
/>
<path stroke="#439037" vector-effect="non-scaling-stroke" d="
  M 87.25 129.96
  Q 86.58 130.59 85.74 130.74
  Q 85.24 130.83 84.91 130.45
  L 82.54 127.75"
/>
<path stroke="#08546e" vector-effect="non-scaling-stroke" d="
  M 146.86 78.57
  C 144.32 81.36 132.40 95.94 131.25 95.79"
/>
<path stroke="#6bae6d" vector-effect="non-scaling-stroke" d="
  M 131.25 95.79
  L 127.71 92.75"
/>
<path stroke="#6bae6d" vector-effect="non-scaling-stroke" d="
  M 75.54 92.75
  L 71.71 96.00"
/>
<path stroke="#79a3b1" vector-effect="non-scaling-stroke" d="
  M 71.71 96.00
  Q 71.63 96.00 71.54 96.00"
/>
<path stroke="#08546e" vector-effect="non-scaling-stroke" d="
  M 71.54 96.00
  L 56.46 78.53"
/>
<path stroke="#007f78" vector-effect="non-scaling-stroke" d="
  M 112.50 120.71
  Q 109.92 121.26 108.96 123.75"
/>
<path stroke="#1a4f55" vector-effect="non-scaling-stroke" d="
  M 111.03 137.30
  L 110.96 132.45"
/>
<path stroke="#7897a2" vector-effect="non-scaling-stroke" d="
  M 71.54 96.00
  L 71.46 96.50"
/>
<path stroke="#468231" vector-effect="non-scaling-stroke" d="
  M 71.46 96.50
  L 67.29 99.75"
/>
<path stroke="#8e9093" vector-effect="non-scaling-stroke" d="
  M 161.49 130.46
  A 5.38 5.38 0.0 0 0 156.11 125.08
  L 150.15 125.08
  A 5.38 5.38 0.0 0 0 144.77 130.46
  L 144.77 139.78
  A 5.38 5.38 0.0 0 0 150.15 145.16
  L 156.11 145.16
  A 5.38 5.38 0.0 0 0 161.49 139.78
  L 161.49 130.46"
/>
<path stroke="#8e9093" vector-effect="non-scaling-stroke" d="
  M 28.43 140.58
  L 28.64 144.18
  Q 28.68 144.91 29.41 144.92
  L 33.79 145.02
  Q 34.57 145.04 34.65 144.27
  Q 35.71 134.33 30.86 125.64
  Q 30.63 125.24 30.17 125.24
  L 22.48 125.28
  Q 21.97 125.28 21.72 125.73
  Q 17.06 134.18 17.79 143.83
  A 1.30 1.29 87.2 0 0 19.10 145.02
  L 23.02 144.95
  Q 23.73 144.94 23.74 144.23
  L 23.76 140.50
  Q 23.76 140.00 24.25 140.00
  L 27.82 140.00
  Q 28.40 140.00 28.43 140.58"
/>
<path stroke="#8e9093" vector-effect="non-scaling-stroke" d="
  M 37.99 126.57
  L 37.99 143.67
  A 1.30 1.30 0.0 0 0 39.29 144.97
  L 48.99 144.97
  A 6.02 5.84 0.0 0 0 55.01 139.13
  L 55.01 131.11
  A 6.02 5.84 -0.0 0 0 48.99 125.27
  L 39.29 125.27
  A 1.30 1.30 0.0 0 0 37.99 126.57"
/>
<path stroke="#8e9093" vector-effect="non-scaling-stroke" d="
  M 174.80 139.74
  Q 172.85 140.57 171.46 139.44
  Q 171.00 139.07 171.00 138.49
  L 171.00 126.00
  Q 171.00 125.25 170.25 125.25
  L 165.55 125.25
  Q 165.05 125.25 165.04 125.75
  Q 164.91 132.61 165.03 139.45
  C 165.14 146.29 173.57 145.96 178.10 144.55
  C 180.81 143.70 181.70 141.92 181.71 139.23
  Q 181.74 129.34 181.76 126.27
  Q 181.77 125.70 181.23 125.51
  C 179.37 124.89 175.05 124.31 175.47 127.76
  Q 175.88 131.16 175.34 138.97
  Q 175.30 139.52 174.80 139.74"
/>
<path stroke="#439037" vector-effect="non-scaling-stroke" d="
  M 80.6710 118.0659
  A 0.71 0.71 0.0 0 0 79.6722 117.9627
  L 77.1889 119.9809
  A 0.71 0.71 0.0 0 0 77.0856 120.9797
  L 79.1290 123.4941
  A 0.71 0.71 0.0 0 0 80.1278 123.5973
  L 82.6111 121.5791
  A 0.71 0.71 0.0 0 0 82.7144 120.5803
  L 80.6710 118.0659"
/>
<path stroke="#439037" vector-effect="non-scaling-stroke" d="
  M 126.2784 120.9984
  A 0.63 0.63 0.0 0 0 126.2132 120.1098
  L 123.6848 117.9274
  A 0.63 0.63 0.0 0 0 122.7963 117.9927
  L 120.5616 120.5816
  A 0.63 0.63 0.0 0 0 120.6268 121.4702
  L 123.1552 123.6526
  A 0.63 0.63 0.0 0 0 124.0437 123.5873
  L 126.2784 120.9984"
/>
<path stroke="#8e9093" vector-effect="non-scaling-stroke" d="
  M 155.5109 131.9983
  A 1.72 1.72 0.0 0 0 153.7970 130.2723
  L 152.4970 130.2678
  A 1.72 1.72 0.0 0 0 150.7710 131.9817
  L 150.7491 138.2617
  A 1.72 1.72 0.0 0 0 152.4630 139.9877
  L 153.7630 139.9922
  A 1.72 1.72 0.0 0 0 155.4890 138.2783
  L 155.5109 131.9983"
/>
<path stroke="#8e9093" vector-effect="non-scaling-stroke" d="
  M 9.6746 131.3479
  A 0.89 0.89 0.0 0 0 8.7646 130.4783
  L 6.8051 130.5227
  A 0.89 0.89 0.0 0 0 5.9355 131.4327
  L 5.9854 133.6321
  A 0.89 0.89 0.0 0 0 6.8954 134.5017
  L 8.8549 134.4573
  A 0.89 0.89 0.0 0 0 9.7245 133.5473
  L 9.6746 131.3479"
/>
<path stroke="#8e9093" vector-effect="non-scaling-stroke" d="
  M 24.75 135.28
  L 27.75 135.24
  A 0.21 0.21 0.0 0 0 27.96 135.03
  L 27.95 134.85
  A 4.23 1.66 89.3 0 0 26.24 130.64
  L 26.14 130.64
  A 4.23 1.66 89.3 0 0 24.53 134.89
  L 24.54 135.07
  A 0.21 0.21 0.0 0 0 24.75 135.28"
/>
<path stroke="#8e9093" vector-effect="non-scaling-stroke" d="
  M 48.7168 131.3222
  A 0.83 0.83 0.0 0 0 47.8839 130.4951
  L 45.0439 130.5050
  A 0.83 0.83 0.0 0 0 44.2168 131.3379
  L 44.2432 138.9178
  A 0.83 0.83 0.0 0 0 45.0761 139.7449
  L 47.9161 139.7350
  A 0.83 0.83 0.0 0 0 48.7432 138.9021
  L 48.7168 131.3222"
/>
</g>
<path fill="#c23838" d="
  M 105.97 29.29
  L 108.79 28.71
  Q 109.51 28.56 109.39 29.28
  L 105.38 52.44
  A 0.61 0.60 -68.3 0 1 104.45 52.84
  Q 101.45 50.84 98.38 52.81
  A 0.50 0.50 0.0 0 1 97.62 52.47
  L 94.03 29.01
  A 0.54 0.54 0.0 0 1 94.66 28.39
  L 97.17 28.81
  Q 97.75 28.90 97.75 28.32
  L 97.75 26.77
  Q 97.75 25.85 98.55 26.31
  Q 101.55 28.04 104.57 26.38
  Q 105.25 26.01 105.25 26.78
  L 105.25 28.71
  Q 105.25 29.44 105.97 29.29
  Z"
/>
<path fill="#a38d65" d="
  M 100.89 57.28
  L 86.24 63.52
  A 0.18 0.18 0.0 0 1 86.01 63.26
  C 93.30 50.75 109.71 50.54 117.25 62.92
  A 0.34 0.33 -4.2 0 1 116.83 63.40
  L 102.08 57.28
  Q 101.48 57.03 100.89 57.28
  Z"
/>
<path fill="#a38d65" d="
  M 118.29 95.00
  L 118.50 101.12
  Q 118.51 101.64 118.21 102.06
  L 106.81 117.90
  Q 106.44 118.40 106.29 117.80
  Q 106.13 117.21 105.71 116.75
  L 106.00 115.29
  L 106.82 110.80
  Q 106.90 110.31 106.55 109.97
  Q 105.47 108.89 106.68 107.94
  Q 107.11 107.60 107.16 107.06
  L 108.00 97.79
  L 108.78 91.77
  Q 108.85 91.22 109.34 90.97
  L 114.32 88.44
  Q 114.81 88.20 114.87 87.65
  L 115.33 83.55
  Q 115.41 82.77 114.71 83.13
  L 106.69 87.28
  Q 106.23 87.52 106.29 88.03
  L 107.29 95.75
  Q 107.35 96.22 107.03 96.57
  L 106.00 97.71
  L 102.05 101.01
  Q 101.61 101.37 101.16 101.03
  L 96.88 97.77
  Q 95.71 93.10 97.05 88.26
  Q 97.23 87.63 96.65 87.33
  L 88.56 83.12
  Q 87.86 82.75 87.95 83.54
  L 88.44 87.72
  Q 88.50 88.25 88.97 88.48
  L 93.96 90.98
  Q 94.43 91.22 94.49 91.73
  L 95.29 98.00
  L 97.13 117.69
  Q 97.23 118.82 96.57 117.90
  L 84.99 101.95
  Q 84.64 101.48 84.65 100.89
  L 84.71 94.75
  C 84.00 91.85 82.52 89.90 82.50 86.89
  Q 82.43 77.18 82.53 67.46
  Q 82.54 66.98 82.99 66.79
  L 101.13 59.26
  Q 101.63 59.05 102.13 59.26
  L 120.25 66.77
  Q 120.73 66.97 120.74 67.50
  Q 120.78 77.33 120.74 87.08
  C 120.72 90.09 119.17 92.18 118.29 95.00
  Z"
/>
<path fill="#09607d" d="
  M 75.54 92.75
  L 71.71 96.00
  Q 71.63 96.00 71.54 96.00
  L 56.46 78.53
  L 62.35 73.74
  Q 62.80 73.38 63.17 73.82
  L 69.09 80.97
  Q 69.47 81.43 69.00 81.80
  L 67.97 82.62
  Q 67.49 83.00 67.88 83.47
  L 75.54 92.75
  Z"
/>
<path fill="#09607d" d="
  M 146.86 78.57
  C 144.32 81.36 132.40 95.94 131.25 95.79
  L 127.71 92.75
  L 135.37 83.46
  Q 135.75 82.99 135.28 82.62
  L 134.25 81.79
  Q 133.78 81.42 134.16 80.96
  L 140.16 73.79
  Q 140.54 73.34 141.00 73.71
  L 146.86 78.57
  Z"
/>
<path fill="#07485e" d="
  M 56.46 78.53
  L 71.54 96.00
  L 71.46 96.50
  L 67.29 99.75
  L 59.69 90.57
  Q 59.33 90.13 58.88 90.47
  L 57.61 91.44
  Q 57.18 91.76 56.83 91.35
  L 50.72 84.01
  Q 50.32 83.53 50.80 83.13
  L 56.46 78.53
  Z"
/>
<path fill="#07485e" d="
  M 146.86 78.57
  L 152.46 83.19
  Q 152.91 83.56 152.53 84.01
  L 146.32 91.42
  Q 146.03 91.77 145.68 91.48
  L 144.44 90.43
  Q 143.97 90.04 143.57 90.50
  L 135.71 99.75
  L 131.79 96.75
  L 131.50 96.21
  L 131.25 95.79
  C 132.40 95.94 144.32 81.36 146.86 78.57
  Z"
/>
<path fill="#ccfc5c" d="
  M 75.54 92.75
  L 84.71 94.75
  L 84.65 100.89
  Q 84.64 101.48 84.99 101.95
  L 96.57 117.90
  Q 97.23 118.82 97.13 117.69
  L 95.29 98.00
  L 96.88 97.77
  L 101.16 101.03
  Q 101.61 101.37 102.05 101.01
  L 106.00 97.71
  L 108.00 97.79
  L 107.16 107.06
  Q 107.11 107.60 106.68 107.94
  Q 105.47 108.89 106.55 109.97
  Q 106.90 110.31 106.82 110.80
  L 106.00 115.29
  L 103.45 113.18
  Q 102.94 112.76 102.51 113.26
  L 100.30 115.89
  Q 99.92 116.33 100.38 116.69
  L 103.06 118.82
  Q 103.49 119.16 103.86 118.75
  L 105.71 116.75
  Q 106.13 117.21 106.29 117.80
  Q 106.44 118.40 106.81 117.90
  L 118.21 102.06
  Q 118.51 101.64 118.50 101.12
  L 118.29 95.00
  L 127.71 92.75
  L 131.25 95.79
  L 131.50 96.21
  L 123.77 98.28
  Q 123.08 98.46 123.67 98.86
  L 127.50 101.46
  L 118.00 113.04
  L 117.50 112.96
  Q 117.12 112.30 116.45 111.88
  Q 115.93 111.56 115.55 112.04
  L 113.44 114.72
  Q 113.05 115.22 113.55 115.61
  L 114.71 116.50
  Q 114.73 116.60 114.77 116.90
  L 111.96 120.00
  L 110.46 119.14
  Q 109.93 118.84 109.54 119.30
  L 107.47 121.75
  Q 107.05 122.26 107.56 122.66
  L 108.96 123.75
  Q 109.00 123.88 109.04 124.00
  L 107.50 125.21
  L 98.75 125.21
  L 100.07 123.25
  Q 100.42 122.73 99.93 122.34
  L 97.60 120.44
  Q 97.25 120.16 96.85 120.37
  Q 93.32 122.25 95.38 125.14
  Q 93.73 127.25 94.78 129.99
  Q 94.97 130.50 95.52 130.50
  L 97.56 130.50
  Q 98.19 130.50 98.16 131.12
  L 97.96 137.25
  L 96.06 138.74
  Q 95.64 139.08 95.20 138.76
  L 92.75 136.96
  Q 92.19 134.85 90.25 133.96
  L 87.25 129.96
  L 85.50 125.21
  Q 85.14 121.14 86.21 117.25
  L 88.30 113.02
  A 0.77 0.77 0.0 0 0 87.42 111.94
  Q 86.19 112.25 85.25 113.21
  L 75.75 101.46
  L 79.72 98.89
  A 0.39 0.39 0.0 0 0 79.62 98.18
  L 71.71 96.00
  L 75.54 92.75
  Z"
/>
<path fill="#85bb04" d="
  M 71.46 96.50
  L 72.18 104.22
  Q 72.25 104.94 72.77 104.43
  L 75.75 101.46
  L 85.25 113.21
  C 82.55 114.25 84.96 116.54 86.21 117.25
  Q 85.14 121.14 85.50 125.21
  L 82.54 127.50
  L 82.18 125.94
  Q 82.02 125.25 81.31 125.25
  L 76.81 125.25
  Q 76.21 125.25 76.19 125.85
  L 75.96 136.25
  L 72.25 130.54
  Q 73.62 128.42 72.79 125.96
  Q 72.63 125.49 72.15 125.35
  Q 71.12 125.07 70.00 125.21
  C 67.44 117.26 68.09 108.07 67.29 99.75
  L 71.46 96.50
  Z
  M 80.6710 118.0659
  A 0.71 0.71 0.0 0 0 79.6722 117.9627
  L 77.1889 119.9809
  A 0.71 0.71 0.0 0 0 77.0856 120.9797
  L 79.1290 123.4941
  A 0.71 0.71 0.0 0 0 80.1278 123.5973
  L 82.6111 121.5791
  A 0.71 0.71 0.0 0 0 82.7144 120.5803
  L 80.6710 118.0659
  Z"
/>
<path fill="#85bb04" d="
  M 131.79 96.75
  L 135.71 99.75
  Q 135.74 104.47 135.28 109.15
  C 134.90 113.05 135.00 119.89 133.25 125.21
  L 128.77 125.25
  Q 128.12 125.26 128.10 125.91
  L 128.00 129.71
  Q 127.98 130.47 128.74 130.47
  L 131.15 130.49
  L 125.00 139.71
  L 118.08 139.60
  Q 117.50 139.60 117.50 139.02
  L 117.50 132.16
  A 1.65 1.65 0.0 0 1 119.15 130.51
  L 124.90 130.50
  Q 125.47 130.49 125.47 129.92
  L 125.47 126.03
  Q 125.47 125.36 124.81 125.34
  C 118.50 125.07 110.57 123.90 110.96 132.45
  Q 109.33 133.57 108.65 135.06
  Q 108.42 135.56 108.88 135.87
  L 111.03 137.30
  Q 110.53 145.11 118.50 145.04
  Q 112.19 148.46 105.76 145.33
  Q 109.69 144.05 107.85 140.15
  Q 107.66 139.75 107.22 139.75
  L 105.00 139.75
  Q 104.50 139.75 104.50 139.25
  L 104.50 133.18
  Q 104.50 132.66 104.78 132.22
  Q 105.72 130.73 107.40 130.42
  Q 107.93 130.33 108.10 129.82
  Q 108.91 127.32 107.50 125.21
  L 109.04 124.00
  Q 109.37 124.70 110.00 125.05
  Q 110.50 125.34 110.88 124.91
  L 113.27 122.20
  Q 113.68 121.74 113.32 121.23
  Q 113.04 120.85 112.50 120.71
  L 111.96 120.00
  L 114.77 116.90
  Q 117.95 118.60 119.27 114.44
  Q 119.40 114.01 119.03 113.75
  L 118.00 113.04
  L 127.50 101.46
  L 130.77 104.63
  Q 131.15 105.01 131.19 104.47
  L 131.79 96.75
  Z
  M 126.2784 120.9984
  A 0.63 0.63 0.0 0 0 126.2132 120.1098
  L 123.6848 117.9274
  A 0.63 0.63 0.0 0 0 122.7963 117.9927
  L 120.5616 120.5816
  A 0.63 0.63 0.0 0 0 120.6268 121.4702
  L 123.1552 123.6526
  A 0.63 0.63 0.0 0 0 124.0437 123.5873
  L 126.2784 120.9984
  Z"
/>
<path fill="#009986" d="
  M 117.50 112.96
  L 114.71 116.50
  L 113.55 115.61
  Q 113.05 115.22 113.44 114.72
  L 115.55 112.04
  Q 115.93 111.56 116.45 111.88
  Q 117.12 112.30 117.50 112.96
  Z"
/>
<path fill="#006469" d="
  M 86.21 117.25
  C 84.96 116.54 82.55 114.25 85.25 113.21
  Q 86.19 112.25 87.42 111.94
  A 0.77 0.77 0.0 0 1 88.30 113.02
  L 86.21 117.25
  Z"
/>
<path fill="#009986" d="
  M 106.00 115.29
  L 105.71 116.75
  L 103.86 118.75
  Q 103.49 119.16 103.06 118.82
  L 100.38 116.69
  Q 99.92 116.33 100.30 115.89
  L 102.51 113.26
  Q 102.94 112.76 103.45 113.18
  L 106.00 115.29
  Z"
/>
<path fill="#006469" d="
  M 117.50 112.96
  L 118.00 113.04
  L 119.03 113.75
  Q 119.40 114.01 119.27 114.44
  Q 117.95 118.60 114.77 116.90
  Q 114.73 116.60 114.71 116.50
  L 117.50 112.96
  Z"
/>
<rect fill="#006469" x="-2.31" y="-2.33" transform="translate(79.90,120.78) rotate(-39.1)" width="4.62" height="4.66" rx="0.71"/>
<rect fill="#006469" x="-2.30" y="-2.34" transform="translate(123.42,120.79) rotate(40.8)" width="4.60" height="4.68" rx="0.63"/>
<path fill="#009986" d="
  M 111.96 120.00
  L 112.50 120.71
  Q 109.92 121.26 108.96 123.75
  L 107.56 122.66
  Q 107.05 122.26 107.47 121.75
  L 109.54 119.30
  Q 109.93 118.84 110.46 119.14
  L 111.96 120.00
  Z"
/>
<path fill="#009986" d="
  M 98.75 125.21
  L 95.38 125.14
  Q 93.32 122.25 96.85 120.37
  Q 97.25 120.16 97.60 120.44
  L 99.93 122.34
  Q 100.42 122.73 100.07 123.25
  L 98.75 125.21
  Z"
/>
<path fill="#006469" d="
  M 112.50 120.71
  Q 113.04 120.85 113.32 121.23
  Q 113.68 121.74 113.27 122.20
  L 110.88 124.91
  Q 110.50 125.34 110.00 125.05
  Q 109.37 124.70 109.04 124.00
  Q 109.00 123.88 108.96 123.75
  Q 109.92 121.26 112.50 120.71
  Z"
/>
<path fill="#343a40" d="
  M 125.00 139.71
  Q 126.14 142.09 125.23 144.48
  Q 125.03 144.98 124.49 144.99
  L 118.50 145.04
  Q 110.53 145.11 111.03 137.30
  L 110.96 132.45
  C 110.57 123.90 118.50 125.07 124.81 125.34
  Q 125.47 125.36 125.47 126.03
  L 125.47 129.92
  Q 125.47 130.49 124.90 130.50
  L 119.15 130.51
  A 1.65 1.65 0.0 0 0 117.50 132.16
  L 117.50 139.02
  Q 117.50 139.60 118.08 139.60
  L 125.00 139.71
  Z"
/>
<path fill="#343a40" d="
  M 161.49 139.78
  A 5.38 5.38 0.0 0 1 156.11 145.16
  L 150.15 145.16
  A 5.38 5.38 0.0 0 1 144.77 139.78
  L 144.77 130.46
  A 5.38 5.38 0.0 0 1 150.15 125.08
  L 156.11 125.08
  A 5.38 5.38 0.0 0 1 161.49 130.46
  L 161.49 139.78
  Z
  M 155.5109 131.9983
  A 1.72 1.72 0.0 0 0 153.7970 130.2723
  L 152.4970 130.2678
  A 1.72 1.72 0.0 0 0 150.7710 131.9817
  L 150.7491 138.2617
  A 1.72 1.72 0.0 0 0 152.4630 139.9877
  L 153.7630 139.9922
  A 1.72 1.72 0.0 0 0 155.4890 138.2783
  L 155.5109 131.9983
  Z"
/>
<path fill="#343a40" d="
  M 0.00 144.44
  L 0.00 125.69
  Q 7.31 124.36 12.79 125.91
  C 16.82 127.05 16.04 134.51 14.69 137.48
  Q 14.46 137.96 13.98 138.20
  Q 10.68 139.83 6.90 139.44
  Q 6.26 139.37 6.26 140.02
  L 6.24 143.89
  Q 6.23 144.51 5.64 144.70
  Q 2.71 145.64 0.00 144.44
  Z
  M 9.6746 131.3479
  A 0.89 0.89 0.0 0 0 8.7646 130.4783
  L 6.8051 130.5227
  A 0.89 0.89 0.0 0 0 5.9355 131.4327
  L 5.9854 133.6321
  A 0.89 0.89 0.0 0 0 6.8954 134.5017
  L 8.8549 134.4573
  A 0.89 0.89 0.0 0 0 9.7245 133.5473
  L 9.6746 131.3479
  Z"
/>
<path fill="#343a40" d="
  M 27.82 140.00
  L 24.25 140.00
  Q 23.76 140.00 23.76 140.50
  L 23.74 144.23
  Q 23.73 144.94 23.02 144.95
  L 19.10 145.02
  A 1.30 1.29 87.2 0 1 17.79 143.83
  Q 17.06 134.18 21.72 125.73
  Q 21.97 125.28 22.48 125.28
  L 30.17 125.24
  Q 30.63 125.24 30.86 125.64
  Q 35.71 134.33 34.65 144.27
  Q 34.57 145.04 33.79 145.02
  L 29.41 144.92
  Q 28.68 144.91 28.64 144.18
  L 28.43 140.58
  Q 28.40 140.00 27.82 140.00
  Z
  M 24.75 135.28
  L 27.75 135.24
  A 0.21 0.21 0.0 0 0 27.96 135.03
  L 27.95 134.85
  A 4.23 1.66 89.3 0 0 26.24 130.64
  L 26.14 130.64
  A 4.23 1.66 89.3 0 0 24.53 134.89
  L 24.54 135.07
  A 0.21 0.21 0.0 0 0 24.75 135.28
  Z"
/>
<path fill="#343a40" d="
  M 37.99 126.57
  A 1.30 1.30 0.0 0 1 39.29 125.27
  L 48.99 125.27
  A 6.02 5.84 -0.0 0 1 55.01 131.11
  L 55.01 139.13
  A 6.02 5.84 0.0 0 1 48.99 144.97
  L 39.29 144.97
  A 1.30 1.30 0.0 0 1 37.99 143.67
  L 37.99 126.57
  Z
  M 48.7168 131.3222
  A 0.83 0.83 0.0 0 0 47.8839 130.4951
  L 45.0439 130.5050
  A 0.83 0.83 0.0 0 0 44.2168 131.3379
  L 44.2432 138.9178
  A 0.83 0.83 0.0 0 0 45.0761 139.7449
  L 47.9161 139.7350
  A 0.83 0.83 0.0 0 0 48.7432 138.9021
  L 48.7168 131.3222
  Z"
/>
<path fill="#343a40" d="
  M 70.00 125.21
  Q 71.12 125.07 72.15 125.35
  Q 72.63 125.49 72.79 125.96
  Q 73.62 128.42 72.25 130.54
  L 65.00 130.52
  Q 64.50 130.52 64.50 131.01
  L 64.50 132.00
  Q 64.50 132.49 65.00 132.50
  L 70.06 132.51
  Q 70.73 132.51 70.74 133.18
  L 70.76 136.71
  Q 70.76 137.49 69.98 137.49
  L 65.12 137.51
  Q 64.50 137.51 64.50 138.13
  L 64.50 139.13
  Q 64.50 139.75 65.13 139.75
  L 72.16 139.75
  Q 73.07 139.75 73.03 140.66
  L 72.91 144.29
  Q 72.88 144.95 72.22 144.95
  L 59.08 145.02
  A 0.58 0.57 -0.0 0 1 58.50 144.45
  L 58.50 125.75
  A 0.51 0.51 0.0 0 1 59.01 125.24
  L 70.00 125.21
  Z"
/>
<path fill="#343a40" d="
  M 82.54 127.50
  Q 82.54 127.63 82.54 127.75
  Q 81.95 133.44 82.35 139.19
  Q 82.39 139.75 82.95 139.75
  L 85.37 139.75
  Q 86.00 139.75 86.00 139.13
  L 86.00 135.08
  Q 86.00 134.61 86.47 134.53
  L 90.25 133.96
  Q 92.19 134.85 92.75 136.96
  Q 91.45 140.13 92.11 143.29
  A 1.47 1.46 82.6 0 1 90.75 145.06
  L 85.75 145.29
  L 77.32 145.02
  A 1.18 1.18 0.0 0 1 76.17 143.87
  L 75.96 136.25
  L 76.19 125.85
  Q 76.21 125.25 76.81 125.25
  L 81.31 125.25
  Q 82.02 125.25 82.18 125.94
  L 82.54 127.50
  Z"
/>
<path fill="#006469" d="
  M 85.50 125.21
  L 87.25 129.96
  Q 86.58 130.59 85.74 130.74
  Q 85.24 130.83 84.91 130.45
  L 82.54 127.75
  Q 82.54 127.63 82.54 127.50
  L 85.50 125.21
  Z"
/>
<path fill="#343a40" d="
  M 95.38 125.14
  L 98.75 125.21
  L 107.50 125.21
  Q 108.91 127.32 108.10 129.82
  Q 107.93 130.33 107.40 130.42
  Q 105.72 130.73 104.78 132.22
  Q 104.50 132.66 104.50 133.18
  L 104.50 139.25
  Q 104.50 139.75 105.00 139.75
  L 107.22 139.75
  Q 107.66 139.75 107.85 140.15
  Q 109.69 144.05 105.76 145.33
  Q 101.75 144.55 97.73 145.34
  Q 92.55 144.52 95.02 140.02
  Q 95.24 139.61 95.72 139.65
  L 97.34 139.77
  Q 97.98 139.82 98.14 139.20
  Q 98.39 138.21 97.96 137.25
  L 98.16 131.12
  Q 98.19 130.50 97.56 130.50
  L 95.52 130.50
  Q 94.97 130.50 94.78 129.99
  Q 93.73 127.25 95.38 125.14
  Z"
/>
<path fill="#343a40" d="
  M 133.25 125.21
  L 140.61 125.25
  Q 141.19 125.25 141.38 125.79
  Q 142.14 127.84 141.50 129.96
  Q 141.34 130.50 140.77 130.50
  L 138.75 130.50
  Q 138.00 130.50 138.00 131.25
  L 138.00 139.25
  Q 138.00 139.75 138.50 139.75
  L 140.78 139.75
  Q 141.33 139.75 141.53 140.26
  C 142.01 141.46 142.28 144.92 140.18 144.95
  Q 134.85 145.05 129.27 144.98
  A 1.30 1.30 0.0 0 1 127.98 143.65
  L 128.05 140.43
  Q 128.07 139.75 128.75 139.75
  L 131.19 139.75
  Q 131.58 139.75 131.63 139.37
  Q 132.20 134.79 131.15 130.49
  L 128.74 130.47
  Q 127.98 130.47 128.00 129.71
  L 128.10 125.91
  Q 128.12 125.26 128.77 125.25
  L 133.25 125.21
  Z"
/>
<path fill="#343a40" d="
  M 175.34 138.97
  Q 175.88 131.16 175.47 127.76
  C 175.05 124.31 179.37 124.89 181.23 125.51
  Q 181.77 125.70 181.76 126.27
  Q 181.74 129.34 181.71 139.23
  C 181.70 141.92 180.81 143.70 178.10 144.55
  C 173.57 145.96 165.14 146.29 165.03 139.45
  Q 164.91 132.61 165.04 125.75
  Q 165.05 125.25 165.55 125.25
  L 170.25 125.25
  Q 171.00 125.25 171.00 126.00
  L 171.00 138.49
  Q 171.00 139.07 171.46 139.44
  Q 172.85 140.57 174.80 139.74
  Q 175.30 139.52 175.34 138.97
  Z"
/>
<path fill="#343a40" d="
  M 200.00 136.31
  L 200.00 141.06
  C 198.48 146.27 189.41 145.28 185.40 144.78
  Q 184.74 144.70 184.74 144.03
  L 184.76 140.40
  Q 184.77 139.81 185.36 139.79
  C 186.68 139.74 193.33 140.07 193.81 139.25
  A 0.76 0.75 -71.1 0 0 193.26 138.12
  Q 190.09 137.70 187.53 136.92
  C 184.01 135.84 184.32 130.15 185.25 127.99
  C 186.82 124.33 194.96 125.13 198.35 125.34
  Q 199.00 125.38 199.00 126.02
  L 199.00 129.87
  Q 199.00 130.49 198.38 130.50
  L 191.63 130.51
  Q 191.05 130.51 190.99 131.10
  C 190.82 133.09 198.62 131.72 200.00 136.31
  Z"
/>
<path fill="#85bb04" d="
  M 82.54 127.75
  L 84.91 130.45
  Q 85.24 130.83 85.74 130.74
  Q 86.58 130.59 87.25 129.96
  L 90.25 133.96
  L 86.47 134.53
  Q 86.00 134.61 86.00 135.08
  L 86.00 139.13
  Q 86.00 139.75 85.37 139.75
  L 82.95 139.75
  Q 82.39 139.75 82.35 139.19
  Q 81.95 133.44 82.54 127.75
  Z"
/>
<path fill="#006469" d="
  M 110.96 132.45
  L 111.03 137.30
  L 108.88 135.87
  Q 108.42 135.56 108.65 135.06
  Q 109.33 133.57 110.96 132.45
  Z"
/>
<path fill="#85bb04" d="
  M 92.75 136.96
  L 95.20 138.76
  Q 95.64 139.08 96.06 138.74
  L 97.96 137.25
  Q 98.39 138.21 98.14 139.20
  Q 97.98 139.82 97.34 139.77
  L 95.72 139.65
  Q 95.24 139.61 95.02 140.02
  Q 92.55 144.52 97.73 145.34
  Q 91.72 148.39 85.75 145.29
  L 90.75 145.06
  A 1.47 1.46 82.6 0 0 92.11 143.29
  Q 91.45 140.13 92.75 136.96
  Z"
/>
</svg>
